<svg xmlns="http://www.w3.org/2000/svg" version="1.1" xmlns:xlink="http://www.w3.org/1999/xlink" xmlns:svgjs="http://svgjs.dev/svgjs" width="100%" height="100%" viewBox="-16.07 3.17 214.37 190.32"><path d="M100 189.50C114.08 189.50 110.53 154.32 123.21 148.21S174.17 193.98 191.15 172.69S150.55 131.88 154.96 112.54S185.50 96.55 182.01 81.28S141.10 85.44 132.22 74.30S150.95 35.27 134.89 27.54S112.38 49.51 100 49.51S76.52 -1.46 55.91 8.45S60.18 48.18 50.40 60.45S-6.34 50.75 -11.75 74.49S49.11 90.70 53.65 110.57S-8.54 150.19 9.17 172.42S61.85 130.51 80.88 139.68S79.75 189.50 99.99 189.50Z " fill="url(&quot;#SvgjsLinearGradient1000&quot;)" stroke="none" transform="matrix(1,0,0,1,0,0)"></path><defs><linearGradient gradientTransform="matrix(0.86,-0.49,0.49,0.86,0,0)" id="SvgjsLinearGradient1000"><stop stop-color="#d738ff" offset="0"></stop><stop stop-color="#ff3362" offset="1"></stop></linearGradient></defs></svg>